<mxfile host="app.diagrams.net" modified="2022-10-20T04:36:01.275Z" agent="5.0 (Windows NT 10.0; Win64; x64) AppleWebKit/537.36 (KHTML, like Gecko) Chrome/106.0.0.0 Safari/537.36" etag="4fYCOmXZD9BrfgRNN7KM" version="20.4.2" type="github">
  <diagram id="C5RBs43oDa-KdzZeNtuy" name="Page-1">
    <mxGraphModel dx="1384" dy="719" grid="1" gridSize="10" guides="1" tooltips="1" connect="1" arrows="1" fold="1" page="1" pageScale="1" pageWidth="827" pageHeight="1169" math="0" shadow="0">
      <root>
        <mxCell id="WIyWlLk6GJQsqaUBKTNV-0" />
        <mxCell id="WIyWlLk6GJQsqaUBKTNV-1" parent="WIyWlLk6GJQsqaUBKTNV-0" />
        <mxCell id="WIyWlLk6GJQsqaUBKTNV-2" value="" style="rounded=0;html=1;jettySize=auto;orthogonalLoop=1;fontSize=11;endArrow=block;endFill=0;endSize=8;strokeWidth=1;shadow=0;labelBackgroundColor=none;edgeStyle=orthogonalEdgeStyle;" parent="WIyWlLk6GJQsqaUBKTNV-1" source="WIyWlLk6GJQsqaUBKTNV-3" target="WIyWlLk6GJQsqaUBKTNV-6" edge="1">
          <mxGeometry relative="1" as="geometry" />
        </mxCell>
        <mxCell id="WIyWlLk6GJQsqaUBKTNV-3" value="Landing Page" style="rounded=1;whiteSpace=wrap;html=1;fontSize=12;glass=0;strokeWidth=1;shadow=0;" parent="WIyWlLk6GJQsqaUBKTNV-1" vertex="1">
          <mxGeometry x="324" y="80" width="120" height="40" as="geometry" />
        </mxCell>
        <mxCell id="vMpb4PyR56rVBC7EJzTK-7" value="" style="edgeStyle=orthogonalEdgeStyle;rounded=0;orthogonalLoop=1;jettySize=auto;html=1;" edge="1" parent="WIyWlLk6GJQsqaUBKTNV-1" source="WIyWlLk6GJQsqaUBKTNV-6" target="vMpb4PyR56rVBC7EJzTK-6">
          <mxGeometry relative="1" as="geometry" />
        </mxCell>
        <mxCell id="vMpb4PyR56rVBC7EJzTK-9" value="" style="edgeStyle=orthogonalEdgeStyle;rounded=0;orthogonalLoop=1;jettySize=auto;html=1;" edge="1" parent="WIyWlLk6GJQsqaUBKTNV-1" source="WIyWlLk6GJQsqaUBKTNV-6" target="vMpb4PyR56rVBC7EJzTK-2">
          <mxGeometry relative="1" as="geometry" />
        </mxCell>
        <mxCell id="WIyWlLk6GJQsqaUBKTNV-6" value="If Registered?" style="rhombus;whiteSpace=wrap;html=1;shadow=0;fontFamily=Helvetica;fontSize=12;align=center;strokeWidth=1;spacing=6;spacingTop=-4;" parent="WIyWlLk6GJQsqaUBKTNV-1" vertex="1">
          <mxGeometry x="334" y="170" width="100" height="80" as="geometry" />
        </mxCell>
        <mxCell id="vMpb4PyR56rVBC7EJzTK-5" value="" style="edgeStyle=orthogonalEdgeStyle;rounded=0;orthogonalLoop=1;jettySize=auto;html=1;" edge="1" parent="WIyWlLk6GJQsqaUBKTNV-1" source="vMpb4PyR56rVBC7EJzTK-2" target="vMpb4PyR56rVBC7EJzTK-3">
          <mxGeometry relative="1" as="geometry" />
        </mxCell>
        <mxCell id="vMpb4PyR56rVBC7EJzTK-2" value="Login" style="rounded=0;whiteSpace=wrap;html=1;" vertex="1" parent="WIyWlLk6GJQsqaUBKTNV-1">
          <mxGeometry x="324" y="290" width="120" height="30" as="geometry" />
        </mxCell>
        <mxCell id="vMpb4PyR56rVBC7EJzTK-39" value="" style="edgeStyle=orthogonalEdgeStyle;rounded=0;orthogonalLoop=1;jettySize=auto;html=1;" edge="1" parent="WIyWlLk6GJQsqaUBKTNV-1" source="vMpb4PyR56rVBC7EJzTK-3" target="vMpb4PyR56rVBC7EJzTK-38">
          <mxGeometry relative="1" as="geometry" />
        </mxCell>
        <mxCell id="vMpb4PyR56rVBC7EJzTK-3" value="Is Valid?" style="rhombus;whiteSpace=wrap;html=1;" vertex="1" parent="WIyWlLk6GJQsqaUBKTNV-1">
          <mxGeometry x="344" y="366" width="80" height="80" as="geometry" />
        </mxCell>
        <mxCell id="vMpb4PyR56rVBC7EJzTK-6" value="Registration" style="rounded=0;whiteSpace=wrap;html=1;" vertex="1" parent="WIyWlLk6GJQsqaUBKTNV-1">
          <mxGeometry x="500" y="195" width="120" height="30" as="geometry" />
        </mxCell>
        <mxCell id="vMpb4PyR56rVBC7EJzTK-8" value="NO" style="text;html=1;align=center;verticalAlign=middle;resizable=0;points=[];autosize=1;strokeColor=none;fillColor=none;" vertex="1" parent="WIyWlLk6GJQsqaUBKTNV-1">
          <mxGeometry x="440" y="185" width="40" height="30" as="geometry" />
        </mxCell>
        <mxCell id="vMpb4PyR56rVBC7EJzTK-10" value="YES" style="text;html=1;align=center;verticalAlign=middle;resizable=0;points=[];autosize=1;strokeColor=none;fillColor=none;" vertex="1" parent="WIyWlLk6GJQsqaUBKTNV-1">
          <mxGeometry x="377" y="252" width="50" height="30" as="geometry" />
        </mxCell>
        <mxCell id="vMpb4PyR56rVBC7EJzTK-15" value="" style="edgeStyle=orthogonalEdgeStyle;rounded=0;orthogonalLoop=1;jettySize=auto;html=1;" edge="1" parent="WIyWlLk6GJQsqaUBKTNV-1" source="vMpb4PyR56rVBC7EJzTK-11" target="vMpb4PyR56rVBC7EJzTK-14">
          <mxGeometry relative="1" as="geometry" />
        </mxCell>
        <mxCell id="vMpb4PyR56rVBC7EJzTK-11" value="Ask Location" style="rounded=0;whiteSpace=wrap;html=1;" vertex="1" parent="WIyWlLk6GJQsqaUBKTNV-1">
          <mxGeometry x="189" y="514" width="120" height="30" as="geometry" />
        </mxCell>
        <mxCell id="vMpb4PyR56rVBC7EJzTK-14" value="Special Location?" style="rhombus;whiteSpace=wrap;html=1;" vertex="1" parent="WIyWlLk6GJQsqaUBKTNV-1">
          <mxGeometry x="209" y="611" width="80" height="80" as="geometry" />
        </mxCell>
        <mxCell id="vMpb4PyR56rVBC7EJzTK-16" value="Car/Bike Search" style="rounded=0;whiteSpace=wrap;html=1;" vertex="1" parent="WIyWlLk6GJQsqaUBKTNV-1">
          <mxGeometry x="49" y="711" width="120" height="30" as="geometry" />
        </mxCell>
        <mxCell id="vMpb4PyR56rVBC7EJzTK-17" value="" style="endArrow=classic;html=1;rounded=0;entryX=0.443;entryY=-0.1;entryDx=0;entryDy=0;entryPerimeter=0;" edge="1" parent="WIyWlLk6GJQsqaUBKTNV-1" target="vMpb4PyR56rVBC7EJzTK-16">
          <mxGeometry width="50" height="50" relative="1" as="geometry">
            <mxPoint x="209" y="650.5" as="sourcePoint" />
            <mxPoint x="99" y="650.5" as="targetPoint" />
            <Array as="points">
              <mxPoint x="102" y="651" />
            </Array>
          </mxGeometry>
        </mxCell>
        <mxCell id="vMpb4PyR56rVBC7EJzTK-18" value="YES" style="text;html=1;align=center;verticalAlign=middle;resizable=0;points=[];autosize=1;strokeColor=none;fillColor=none;" vertex="1" parent="WIyWlLk6GJQsqaUBKTNV-1">
          <mxGeometry x="124" y="626" width="50" height="30" as="geometry" />
        </mxCell>
        <mxCell id="vMpb4PyR56rVBC7EJzTK-19" value="Car Search" style="rounded=0;whiteSpace=wrap;html=1;" vertex="1" parent="WIyWlLk6GJQsqaUBKTNV-1">
          <mxGeometry x="317" y="712" width="120" height="30" as="geometry" />
        </mxCell>
        <mxCell id="vMpb4PyR56rVBC7EJzTK-20" value="" style="endArrow=classic;html=1;rounded=0;entryX=0.608;entryY=0;entryDx=0;entryDy=0;entryPerimeter=0;exitX=1;exitY=0.5;exitDx=0;exitDy=0;" edge="1" parent="WIyWlLk6GJQsqaUBKTNV-1" source="vMpb4PyR56rVBC7EJzTK-14">
          <mxGeometry width="50" height="50" relative="1" as="geometry">
            <mxPoint x="289" y="646" as="sourcePoint" />
            <mxPoint x="388.96000000000004" y="711" as="targetPoint" />
            <Array as="points">
              <mxPoint x="389" y="651" />
            </Array>
          </mxGeometry>
        </mxCell>
        <mxCell id="vMpb4PyR56rVBC7EJzTK-21" value="NO" style="text;html=1;align=center;verticalAlign=middle;resizable=0;points=[];autosize=1;strokeColor=none;fillColor=none;" vertex="1" parent="WIyWlLk6GJQsqaUBKTNV-1">
          <mxGeometry x="309" y="626" width="40" height="30" as="geometry" />
        </mxCell>
        <mxCell id="vMpb4PyR56rVBC7EJzTK-28" value="" style="edgeStyle=orthogonalEdgeStyle;rounded=0;orthogonalLoop=1;jettySize=auto;html=1;" edge="1" parent="WIyWlLk6GJQsqaUBKTNV-1" source="vMpb4PyR56rVBC7EJzTK-22" target="vMpb4PyR56rVBC7EJzTK-24">
          <mxGeometry relative="1" as="geometry" />
        </mxCell>
        <mxCell id="vMpb4PyR56rVBC7EJzTK-22" value="Reserve car/bike" style="rounded=0;whiteSpace=wrap;html=1;" vertex="1" parent="WIyWlLk6GJQsqaUBKTNV-1">
          <mxGeometry x="179" y="801" width="120" height="30" as="geometry" />
        </mxCell>
        <mxCell id="vMpb4PyR56rVBC7EJzTK-29" value="" style="edgeStyle=orthogonalEdgeStyle;rounded=0;orthogonalLoop=1;jettySize=auto;html=1;" edge="1" parent="WIyWlLk6GJQsqaUBKTNV-1" source="vMpb4PyR56rVBC7EJzTK-24" target="vMpb4PyR56rVBC7EJzTK-25">
          <mxGeometry relative="1" as="geometry" />
        </mxCell>
        <mxCell id="vMpb4PyR56rVBC7EJzTK-24" value="Document Varification" style="rounded=0;whiteSpace=wrap;html=1;" vertex="1" parent="WIyWlLk6GJQsqaUBKTNV-1">
          <mxGeometry x="179" y="881" width="120" height="30" as="geometry" />
        </mxCell>
        <mxCell id="vMpb4PyR56rVBC7EJzTK-30" value="" style="edgeStyle=orthogonalEdgeStyle;rounded=0;orthogonalLoop=1;jettySize=auto;html=1;" edge="1" parent="WIyWlLk6GJQsqaUBKTNV-1" source="vMpb4PyR56rVBC7EJzTK-25" target="vMpb4PyR56rVBC7EJzTK-26">
          <mxGeometry relative="1" as="geometry" />
        </mxCell>
        <mxCell id="vMpb4PyR56rVBC7EJzTK-25" value="Pickup Location&lt;span style=&quot;color: rgba(0, 0, 0, 0); font-family: monospace; font-size: 0px; text-align: start;&quot;&gt;%3CmxGraphModel%3E%3Croot%3E%3CmxCell%20id%3D%220%22%2F%3E%3CmxCell%20id%3D%221%22%20parent%3D%220%22%2F%3E%3CmxCell%20id%3D%222%22%20value%3D%22Reserve%20car%2Fbike%22%20style%3D%22rounded%3D0%3BwhiteSpace%3Dwrap%3Bhtml%3D1%3B%22%20vertex%3D%221%22%20parent%3D%221%22%3E%3CmxGeometry%20x%3D%22190%22%20y%3D%22760%22%20width%3D%22120%22%20height%3D%2230%22%20as%3D%22geometry%22%2F%3E%3C%2FmxCell%3E%3C%2Froot%3E%3C%2FmxGraphModel%3E&lt;/span&gt;" style="rounded=0;whiteSpace=wrap;html=1;" vertex="1" parent="WIyWlLk6GJQsqaUBKTNV-1">
          <mxGeometry x="179" y="971" width="120" height="30" as="geometry" />
        </mxCell>
        <mxCell id="vMpb4PyR56rVBC7EJzTK-31" value="" style="edgeStyle=orthogonalEdgeStyle;rounded=0;orthogonalLoop=1;jettySize=auto;html=1;" edge="1" parent="WIyWlLk6GJQsqaUBKTNV-1" source="vMpb4PyR56rVBC7EJzTK-26" target="vMpb4PyR56rVBC7EJzTK-27">
          <mxGeometry relative="1" as="geometry" />
        </mxCell>
        <mxCell id="vMpb4PyR56rVBC7EJzTK-26" value="Security Deposit" style="rounded=0;whiteSpace=wrap;html=1;" vertex="1" parent="WIyWlLk6GJQsqaUBKTNV-1">
          <mxGeometry x="179" y="1051" width="120" height="30" as="geometry" />
        </mxCell>
        <mxCell id="vMpb4PyR56rVBC7EJzTK-27" value="Confirm" style="rounded=0;whiteSpace=wrap;html=1;" vertex="1" parent="WIyWlLk6GJQsqaUBKTNV-1">
          <mxGeometry x="179" y="1121" width="120" height="30" as="geometry" />
        </mxCell>
        <mxCell id="vMpb4PyR56rVBC7EJzTK-32" value="" style="endArrow=classic;html=1;rounded=0;entryX=0.5;entryY=0;entryDx=0;entryDy=0;exitX=1;exitY=0.5;exitDx=0;exitDy=0;" edge="1" parent="WIyWlLk6GJQsqaUBKTNV-1" source="vMpb4PyR56rVBC7EJzTK-16" target="vMpb4PyR56rVBC7EJzTK-22">
          <mxGeometry width="50" height="50" relative="1" as="geometry">
            <mxPoint x="189" y="741" as="sourcePoint" />
            <mxPoint x="249" y="791" as="targetPoint" />
            <Array as="points">
              <mxPoint x="239" y="726" />
            </Array>
          </mxGeometry>
        </mxCell>
        <mxCell id="vMpb4PyR56rVBC7EJzTK-33" value="" style="endArrow=none;html=1;rounded=0;entryX=0;entryY=0.5;entryDx=0;entryDy=0;" edge="1" parent="WIyWlLk6GJQsqaUBKTNV-1">
          <mxGeometry width="50" height="50" relative="1" as="geometry">
            <mxPoint x="239" y="726" as="sourcePoint" />
            <mxPoint x="316" y="726" as="targetPoint" />
          </mxGeometry>
        </mxCell>
        <mxCell id="vMpb4PyR56rVBC7EJzTK-34" value="" style="endArrow=classic;html=1;rounded=0;entryX=0;entryY=0.5;entryDx=0;entryDy=0;" edge="1" parent="WIyWlLk6GJQsqaUBKTNV-1" target="vMpb4PyR56rVBC7EJzTK-35">
          <mxGeometry width="50" height="50" relative="1" as="geometry">
            <mxPoint x="424" y="406" as="sourcePoint" />
            <mxPoint x="530" y="386.2048192771083" as="targetPoint" />
          </mxGeometry>
        </mxCell>
        <mxCell id="vMpb4PyR56rVBC7EJzTK-35" value="Forget Password" style="rounded=0;whiteSpace=wrap;html=1;" vertex="1" parent="WIyWlLk6GJQsqaUBKTNV-1">
          <mxGeometry x="530" y="387" width="120" height="40" as="geometry" />
        </mxCell>
        <mxCell id="vMpb4PyR56rVBC7EJzTK-36" value="" style="endArrow=classic;html=1;rounded=0;entryX=1;entryY=0.5;entryDx=0;entryDy=0;exitX=0.5;exitY=0;exitDx=0;exitDy=0;" edge="1" parent="WIyWlLk6GJQsqaUBKTNV-1" source="vMpb4PyR56rVBC7EJzTK-35" target="vMpb4PyR56rVBC7EJzTK-2">
          <mxGeometry width="50" height="50" relative="1" as="geometry">
            <mxPoint x="590" y="370" as="sourcePoint" />
            <mxPoint x="590" y="280" as="targetPoint" />
            <Array as="points">
              <mxPoint x="590" y="305" />
            </Array>
          </mxGeometry>
        </mxCell>
        <mxCell id="vMpb4PyR56rVBC7EJzTK-37" value="NO" style="text;html=1;align=center;verticalAlign=middle;resizable=0;points=[];autosize=1;strokeColor=none;fillColor=none;" vertex="1" parent="WIyWlLk6GJQsqaUBKTNV-1">
          <mxGeometry x="450" y="371" width="40" height="30" as="geometry" />
        </mxCell>
        <mxCell id="vMpb4PyR56rVBC7EJzTK-41" value="" style="edgeStyle=orthogonalEdgeStyle;rounded=0;orthogonalLoop=1;jettySize=auto;html=1;" edge="1" parent="WIyWlLk6GJQsqaUBKTNV-1" source="vMpb4PyR56rVBC7EJzTK-38" target="vMpb4PyR56rVBC7EJzTK-11">
          <mxGeometry relative="1" as="geometry" />
        </mxCell>
        <mxCell id="vMpb4PyR56rVBC7EJzTK-45" value="" style="edgeStyle=orthogonalEdgeStyle;rounded=0;orthogonalLoop=1;jettySize=auto;html=1;" edge="1" parent="WIyWlLk6GJQsqaUBKTNV-1" source="vMpb4PyR56rVBC7EJzTK-38" target="vMpb4PyR56rVBC7EJzTK-44">
          <mxGeometry relative="1" as="geometry" />
        </mxCell>
        <mxCell id="vMpb4PyR56rVBC7EJzTK-38" value="Is Admin?" style="rhombus;whiteSpace=wrap;html=1;" vertex="1" parent="WIyWlLk6GJQsqaUBKTNV-1">
          <mxGeometry x="344" y="490" width="80" height="80" as="geometry" />
        </mxCell>
        <mxCell id="vMpb4PyR56rVBC7EJzTK-42" value="NO" style="text;html=1;align=center;verticalAlign=middle;resizable=0;points=[];autosize=1;strokeColor=none;fillColor=none;" vertex="1" parent="WIyWlLk6GJQsqaUBKTNV-1">
          <mxGeometry x="310" y="506" width="40" height="30" as="geometry" />
        </mxCell>
        <mxCell id="vMpb4PyR56rVBC7EJzTK-43" value="YES" style="text;html=1;align=center;verticalAlign=middle;resizable=0;points=[];autosize=1;strokeColor=none;fillColor=none;" vertex="1" parent="WIyWlLk6GJQsqaUBKTNV-1">
          <mxGeometry x="375" y="465" width="50" height="30" as="geometry" />
        </mxCell>
        <mxCell id="vMpb4PyR56rVBC7EJzTK-48" value="" style="edgeStyle=orthogonalEdgeStyle;rounded=0;orthogonalLoop=1;jettySize=auto;html=1;" edge="1" parent="WIyWlLk6GJQsqaUBKTNV-1" source="vMpb4PyR56rVBC7EJzTK-44" target="vMpb4PyR56rVBC7EJzTK-47">
          <mxGeometry relative="1" as="geometry" />
        </mxCell>
        <mxCell id="vMpb4PyR56rVBC7EJzTK-44" value="Admin Dashboard" style="rounded=0;whiteSpace=wrap;html=1;" vertex="1" parent="WIyWlLk6GJQsqaUBKTNV-1">
          <mxGeometry x="462" y="514" width="120" height="34" as="geometry" />
        </mxCell>
        <mxCell id="vMpb4PyR56rVBC7EJzTK-46" value="YES" style="text;html=1;align=center;verticalAlign=middle;resizable=0;points=[];autosize=1;strokeColor=none;fillColor=none;" vertex="1" parent="WIyWlLk6GJQsqaUBKTNV-1">
          <mxGeometry x="412" y="507" width="50" height="30" as="geometry" />
        </mxCell>
        <mxCell id="vMpb4PyR56rVBC7EJzTK-50" value="" style="edgeStyle=orthogonalEdgeStyle;rounded=0;orthogonalLoop=1;jettySize=auto;html=1;" edge="1" parent="WIyWlLk6GJQsqaUBKTNV-1" source="vMpb4PyR56rVBC7EJzTK-47" target="vMpb4PyR56rVBC7EJzTK-49">
          <mxGeometry relative="1" as="geometry" />
        </mxCell>
        <mxCell id="vMpb4PyR56rVBC7EJzTK-47" value="Update Interface" style="rounded=0;whiteSpace=wrap;html=1;" vertex="1" parent="WIyWlLk6GJQsqaUBKTNV-1">
          <mxGeometry x="463" y="586" width="120" height="34" as="geometry" />
        </mxCell>
        <mxCell id="vMpb4PyR56rVBC7EJzTK-49" value="Logout" style="rounded=0;whiteSpace=wrap;html=1;" vertex="1" parent="WIyWlLk6GJQsqaUBKTNV-1">
          <mxGeometry x="463" y="657" width="120" height="34" as="geometry" />
        </mxCell>
        <mxCell id="vMpb4PyR56rVBC7EJzTK-51" value="" style="endArrow=classic;html=1;rounded=0;exitX=1;exitY=0.5;exitDx=0;exitDy=0;entryX=0.5;entryY=1;entryDx=0;entryDy=0;" edge="1" parent="WIyWlLk6GJQsqaUBKTNV-1" source="vMpb4PyR56rVBC7EJzTK-27" target="vMpb4PyR56rVBC7EJzTK-49">
          <mxGeometry width="50" height="50" relative="1" as="geometry">
            <mxPoint x="380" y="850" as="sourcePoint" />
            <mxPoint x="430" y="800" as="targetPoint" />
            <Array as="points">
              <mxPoint x="520" y="1136" />
            </Array>
          </mxGeometry>
        </mxCell>
      </root>
    </mxGraphModel>
  </diagram>
</mxfile>
